<svg width="129" height="28" viewBox="0 0 129 28" fill="none" xmlns="http://www.w3.org/2000/svg">
<path d="M6.85001 6.8501C7.83335 6.8501 8.69168 7.0501 9.42501 7.4501C10.175 7.8501 10.75 8.3751 11.15 9.0251V7.0501H15.425V20.9751C15.425 22.2584 15.1667 23.4168 14.65 24.4501C14.15 25.5001 13.375 26.3334 12.325 26.9501C11.2917 27.5668 10 27.8751 8.45001 27.8751C6.38335 27.8751 4.70835 27.3834 3.42501 26.4001C2.14168 25.4334 1.40835 24.1168 1.22501 22.4501H5.45001C5.58335 22.9834 5.90001 23.4001 6.40001 23.7001C6.90001 24.0168 7.51668 24.1751 8.25001 24.1751C9.13335 24.1751 9.83335 23.9168 10.35 23.4001C10.8833 22.9001 11.15 22.0918 11.15 20.9751V19.0001C10.7333 19.6501 10.1583 20.1834 9.42501 20.6001C8.69168 21.0001 7.83335 21.2001 6.85001 21.2001C5.70001 21.2001 4.65835 20.9084 3.72501 20.3251C2.79168 19.7251 2.05001 18.8834 1.50001 17.8001C0.966679 16.7001 0.700012 15.4334 0.700012 14.0001C0.700012 12.5668 0.966679 11.3084 1.50001 10.2251C2.05001 9.14177 2.79168 8.30843 3.72501 7.7251C4.65835 7.14176 5.70001 6.8501 6.85001 6.8501ZM11.15 14.0251C11.15 12.9584 10.85 12.1168 10.25 11.5001C9.66668 10.8834 8.95001 10.5751 8.10001 10.5751C7.25001 10.5751 6.52501 10.8834 5.92501 11.5001C5.34168 12.1001 5.05001 12.9334 5.05001 14.0001C5.05001 15.0668 5.34168 15.9168 5.92501 16.5501C6.52501 17.1668 7.25001 17.4751 8.10001 17.4751C8.95001 17.4751 9.66668 17.1668 10.25 16.5501C10.85 15.9334 11.15 15.0918 11.15 14.0251Z" fill="#2D2D2D"/>
<path d="M20.6678 5.6001C19.9178 5.6001 19.3011 5.38343 18.8178 4.9501C18.3511 4.5001 18.1178 3.9501 18.1178 3.3001C18.1178 2.63343 18.3511 2.08343 18.8178 1.6501C19.3011 1.2001 19.9178 0.975098 20.6678 0.975098C21.4011 0.975098 22.0011 1.2001 22.4678 1.6501C22.9511 2.08343 23.1928 2.63343 23.1928 3.3001C23.1928 3.9501 22.9511 4.5001 22.4678 4.9501C22.0011 5.38343 21.4011 5.6001 20.6678 5.6001ZM22.7928 7.0501V21.0001H18.5178V7.0501H22.7928Z" fill="#2D2D2D"/>
<path d="M33.6658 17.3751V21.0001H31.4908C29.9408 21.0001 28.7325 20.6251 27.8658 19.8751C26.9992 19.1084 26.5658 17.8668 26.5658 16.1501V10.6001H24.8658V7.0501H26.5658V3.6501H30.8408V7.0501H33.6408V10.6001H30.8408V16.2001C30.8408 16.6168 30.9408 16.9168 31.1408 17.1001C31.3408 17.2834 31.6742 17.3751 32.1408 17.3751H33.6658Z" fill="#2D2D2D"/>
<path d="M48.9178 2.5001V21.0001H44.6428V2.5001H48.9178Z" fill="#2D2D2D"/>
<path d="M54.1658 5.6001C53.4158 5.6001 52.7992 5.38343 52.3158 4.9501C51.8492 4.5001 51.6158 3.9501 51.6158 3.3001C51.6158 2.63343 51.8492 2.08343 52.3158 1.6501C52.7992 1.2001 53.4158 0.975098 54.1658 0.975098C54.8992 0.975098 55.4992 1.2001 55.9658 1.6501C56.4492 2.08343 56.6908 2.63343 56.6908 3.3001C56.6908 3.9501 56.4492 4.5001 55.9658 4.9501C55.4992 5.38343 54.8992 5.6001 54.1658 5.6001ZM56.2908 7.0501V21.0001H52.0158V7.0501H56.2908Z" fill="#2D2D2D"/>
<path d="M63.6639 9.0251C64.0639 8.3751 64.6389 7.8501 65.3889 7.4501C66.1389 7.0501 66.9972 6.8501 67.9639 6.8501C69.1139 6.8501 70.1555 7.14176 71.0889 7.7251C72.0222 8.30843 72.7555 9.14177 73.2889 10.2251C73.8389 11.3084 74.1139 12.5668 74.1139 14.0001C74.1139 15.4334 73.8389 16.7001 73.2889 17.8001C72.7555 18.8834 72.0222 19.7251 71.0889 20.3251C70.1555 20.9084 69.1139 21.2001 67.9639 21.2001C66.9805 21.2001 66.1222 21.0084 65.3889 20.6251C64.6556 20.2251 64.0805 19.7001 63.6639 19.0501V21.0001H59.3889V2.5001H63.6639V9.0251ZM69.7639 14.0001C69.7639 12.9334 69.4639 12.1001 68.8639 11.5001C68.2806 10.8834 67.5555 10.5751 66.6889 10.5751C65.8389 10.5751 65.1139 10.8834 64.5139 11.5001C63.9306 12.1168 63.6389 12.9584 63.6389 14.0251C63.6389 15.0918 63.9306 15.9334 64.5139 16.5501C65.1139 17.1668 65.8389 17.4751 66.6889 17.4751C67.5389 17.4751 68.2639 17.1668 68.8639 16.5501C69.4639 15.9168 69.7639 15.0668 69.7639 14.0001Z" fill="#2D2D2D"/>
<path d="M80.6317 9.3751C81.1317 8.60843 81.7567 8.00843 82.5067 7.5751C83.2567 7.1251 84.09 6.9001 85.0067 6.9001V11.4251H83.8317C82.765 11.4251 81.965 11.6584 81.4317 12.1251C80.8983 12.5751 80.6317 13.3751 80.6317 14.5251V21.0001H76.3567V7.0501H80.6317V9.3751Z" fill="#2D2D2D"/>
<path d="M86.2 14.0001C86.2 12.5668 86.4667 11.3084 87 10.2251C87.55 9.14177 88.2917 8.30843 89.225 7.7251C90.1583 7.14176 91.2 6.8501 92.35 6.8501C93.3333 6.8501 94.1917 7.0501 94.925 7.4501C95.675 7.8501 96.25 8.3751 96.65 9.0251V7.0501H100.925V21.0001H96.65V19.0251C96.2334 19.6751 95.65 20.2001 94.9 20.6001C94.1667 21.0001 93.3083 21.2001 92.325 21.2001C91.1917 21.2001 90.1583 20.9084 89.225 20.3251C88.2917 19.7251 87.55 18.8834 87 17.8001C86.4667 16.7001 86.2 15.4334 86.2 14.0001ZM96.65 14.0251C96.65 12.9584 96.35 12.1168 95.75 11.5001C95.1667 10.8834 94.45 10.5751 93.6 10.5751C92.75 10.5751 92.025 10.8834 91.425 11.5001C90.8417 12.1001 90.55 12.9334 90.55 14.0001C90.55 15.0668 90.8417 15.9168 91.425 16.5501C92.025 17.1668 92.75 17.4751 93.6 17.4751C94.45 17.4751 95.1667 17.1668 95.75 16.5501C96.35 15.9334 96.65 15.0918 96.65 14.0251Z" fill="#2D2D2D"/>
<path d="M108.293 9.3751C108.793 8.60843 109.418 8.00843 110.168 7.5751C110.918 7.1251 111.751 6.9001 112.668 6.9001V11.4251H111.493C110.426 11.4251 109.626 11.6584 109.093 12.1251C108.559 12.5751 108.293 13.3751 108.293 14.5251V21.0001H104.018V7.0501H108.293V9.3751Z" fill="#2D2D2D"/>
<path d="M128.961 7.0501L120.211 27.6251H115.611L118.811 20.5251L113.136 7.0501H117.911L121.136 15.7751L124.336 7.0501H128.961Z" fill="#2D2D2D"/>
<path d="M38.55 21.1998C37.8 21.1998 37.1833 20.9831 36.7 20.5498C36.2333 20.0998 36 19.5498 36 18.8998C36 18.2331 36.2333 17.6748 36.7 17.2248C37.1833 16.7748 37.8 16.5498 38.55 16.5498C39.2833 16.5498 39.8833 16.7748 40.35 17.2248C40.8333 17.6748 41.075 18.2331 41.075 18.8998C41.075 19.5498 40.8333 20.0998 40.35 20.5498C39.8833 20.9831 39.2833 21.1998 38.55 21.1998Z" fill="#FF1280"/>
</svg>
